<svg height="1000" width="1000" xmlns="http://www.w3.org/2000/svg"><path d="M0 890.632q0 -46.872 33.201 -80.073l259.749 -259.749q-42.966 -82.026 -42.966 -175.77 0 -154.287 109.368 -264.632t265.608 -110.345 265.608 110.345 109.368 265.608 -109.368 264.632 -265.608 109.368q-93.744 0 -175.77 -42.966l-259.749 259.749q-33.201 33.201 -80.073 33.201 -44.919 0 -77.144 -32.224t-32.224 -77.144zm54.684 -.977q0 22.46 16.601 39.06t39.06 16.601 40.037 -17.577l251.937 -251.937q-44.919 -33.201 -78.12 -78.12l-251.937 251.937q-17.577 17.577 -17.577 40.037zm257.796 -514.615q0 128.898 91.791 220.689t220.689 91.791 220.689 -91.791 91.791 -220.689 -91.791 -220.689 -220.689 -91.791 -220.689 91.791 -91.791 220.689zm93.744 0q0 -89.838 64.449 -154.287t154.287 -64.449q15.624 0 15.624 15.624t-15.624 15.624q-78.12 0 -132.804 54.684t-54.684 132.804q0 15.624 -15.624 15.624t-15.624 -15.624z"/></svg>